<?xml version="1.0" standalone="no"?>
<!DOCTYPE svg PUBLIC "-//W3C//DTD SVG 20010904//EN"
 "http://www.w3.org/TR/2001/REC-SVG-20010904/DTD/svg10.dtd">
<svg version="1.0" xmlns="http://www.w3.org/2000/svg"
 width="375.000000pt" height="375.000000pt" viewBox="0 0 375.000000 375.000000"
 preserveAspectRatio="xMidYMid meet">
<metadata>
Created by potrace 1.15, written by Peter Selinger 2001-2017
</metadata>
<g transform="translate(0.000000,375.000000) scale(0.100000,-0.100000)"
fill="#000000" stroke="none">
<path d="M1795 3654 c-44 -6 -97 -18 -117 -27 -85 -36 -1234 -705 -1278 -744
-60 -54 -107 -143 -125 -239 -22 -112 -22 -1416 0 -1528 18 -96 65 -186 124
-238 54 -47 1221 -721 1301 -751 44 -17 79 -21 175 -21 106 0 127 3 180 25 82
34 1248 706 1295 746 20 18 53 63 73 101 64 122 67 157 67 907 0 729 -3 772
-60 885 -39 78 -69 110 -142 158 -126 80 -1194 689 -1238 705 -72 27 -166 34
-255 21z m235 -63 c72 -28 1237 -701 1284 -742 23 -20 54 -60 69 -88 55 -100
57 -125 57 -871 0 -417 -4 -710 -10 -750 -14 -87 -61 -181 -113 -226 -55 -47
-1225 -721 -1297 -746 -69 -25 -205 -27 -281 -4 -32 9 -305 160 -664 366 -672
386 -688 398 -737 517 l-23 58 0 775 0 775 24 60 c48 119 80 142 727 513 320
183 600 341 622 352 87 42 246 47 342 11z"/>
<path d="M1821 3489 c-29 -6 -249 -126 -655 -359 -680 -390 -688 -396 -719
-507 -15 -53 -17 -136 -17 -746 0 -676 0 -688 22 -752 14 -44 33 -78 58 -103
49 -50 1235 -731 1304 -749 101 -26 102 -25 769 358 337 193 627 366 646 383
18 17 44 54 57 81 l24 50 0 736 0 735 -26 52 c-14 29 -43 66 -63 83 -20 17
-306 186 -636 375 -409 236 -617 350 -654 360 -30 8 -58 14 -61 13 -3 -1 -25
-5 -49 -10z m185 -640 c214 -30 424 -137 568 -290 66 -69 136 -165 136 -184
-1 -5 -94 -63 -208 -128 l-207 -118 -25 33 c-76 102 -201 180 -324 200 -147
24 -303 -27 -412 -136 -256 -256 -147 -692 200 -798 56 -17 86 -20 167 -16 92
5 106 8 182 46 79 39 152 102 197 169 l15 23 200 -116 c110 -64 204 -120 209
-124 26 -25 -162 -238 -279 -317 -386 -260 -883 -221 -1216 94 -131 125 -213
252 -262 408 -87 276 -48 578 105 812 211 324 579 494 954 442z m764 -749 l0
-40 65 0 65 0 0 40 0 40 50 0 50 0 0 -40 0 -40 45 0 45 0 0 -55 0 -55 -45 0
-46 0 3 -62 3 -63 43 -3 42 -3 0 -49 0 -49 -42 -3 c-43 -3 -43 -3 -46 -45 l-3
-43 -50 0 -49 0 0 45 0 45 -65 0 -65 0 0 -46 0 -45 -52 3 -53 3 -3 43 c-3 42
-3 42 -43 42 l-39 0 0 50 0 50 40 0 40 0 0 65 0 65 -40 0 -40 0 0 55 0 55 40
0 40 0 0 40 0 40 55 0 55 0 0 -40z"/>
<path d="M2770 1885 l0 -66 63 3 62 3 3 63 3 62 -66 0 -65 0 0 -65z"/>
</g>
</svg>
